<svg width="140" height="24" viewBox="0 0 140 24" fill="none" xmlns="http://www.w3.org/2000/svg">
<g clip-path="url(#clip0_1_13)">
<path d="M86.4581 7.21292V8.55761C86.4581 8.81041 86.2537 9.00943 86.0009 8.99867C85.619 8.98253 85.0865 8.9664 84.7638 8.96102C82.9404 8.96102 81.9345 10.0475 81.9345 12.0215V16.9162C81.9345 17.1582 81.7355 17.3573 81.4935 17.3573H79.896C79.6539 17.3573 79.4549 17.1582 79.4549 16.9162V7.08383C79.4549 6.84179 79.6539 6.64278 79.896 6.64278H81.4182C81.6602 6.64278 81.8592 6.84179 81.8592 7.08383V7.70777C82.5854 6.95474 83.7526 6.54596 85.1887 6.54596C85.4254 6.54596 85.7266 6.57823 85.9363 6.6105C86.2322 6.64816 86.4581 6.90634 86.4581 7.20755V7.21292ZM70.0959 11.3492C70.0098 11.2362 70.0206 11.0802 70.1174 10.9834L74.0493 7.11611C74.2268 6.94399 74.1031 6.64278 73.8556 6.64278H71.5643C71.4513 6.64278 71.3491 6.68581 71.2685 6.76111L66.8364 10.8274C66.6589 10.9888 66.3738 10.8651 66.3738 10.6231V7.08383C66.3738 6.84179 66.1748 6.64278 65.9327 6.64278H64.3353C64.0932 6.64278 63.8942 6.84179 63.8942 7.08383V16.9108C63.8942 17.1529 64.0932 17.3519 64.3353 17.3519H65.9327C66.1802 17.3519 66.3738 17.1529 66.3738 16.9054L66.3577 14.6248C66.3577 14.5011 66.4061 14.3828 66.4975 14.2967L67.8745 13.0166C67.9928 12.909 68.1757 12.9198 68.2779 13.0435L71.6073 17.1798C71.6934 17.282 71.8171 17.3465 71.9516 17.3465H74.2483C74.4796 17.3465 74.6087 17.0829 74.4634 16.9001L70.0851 11.3438L70.0959 11.3492ZM57.047 6.64278H55.4496C55.2075 6.64278 55.0085 6.84179 55.0085 7.08383V16.9108C55.0085 17.1529 55.2075 17.3519 55.4496 17.3519H57.047C57.2891 17.3519 57.4881 17.1529 57.4881 16.9108V7.08383C57.4881 6.84179 57.2891 6.64278 57.047 6.64278ZM114.336 6.64278H104.681C104.439 6.64278 104.24 6.84179 104.24 7.08383V8.51458C104.24 8.75663 104.439 8.95564 104.681 8.95564H107.962C108.113 8.95564 108.237 9.07935 108.237 9.22996V16.9108C108.237 17.1529 108.436 17.3519 108.678 17.3519H110.334C110.576 17.3519 110.775 17.1529 110.775 16.9108V9.22996C110.775 9.07935 110.899 8.95564 111.05 8.95564H114.331C114.573 8.95564 114.772 8.75663 114.772 8.51458V7.08383C114.772 6.84179 114.573 6.64278 114.331 6.64278H114.336ZM100.9 11.9946C100.9 15.1627 98.571 17.4648 95.3545 17.4648C92.138 17.4648 89.7929 15.1627 89.7929 11.9946C89.7929 8.82655 92.1327 6.54596 95.3545 6.54596C98.5764 6.54596 100.9 8.83731 100.9 11.9946ZM98.3989 11.9946C98.3989 10.0852 97.1779 8.79966 95.3545 8.79966C93.5311 8.79966 92.294 10.1121 92.294 11.9946C92.294 13.8772 93.5526 15.2058 95.3545 15.2058C97.1564 15.2058 98.3989 13.8826 98.3989 11.9946ZM121.791 6.64278H120.194C119.952 6.64278 119.753 6.84179 119.753 7.08383V16.9108C119.753 17.1529 119.952 17.3519 120.194 17.3519H121.791C122.033 17.3519 122.232 17.1529 122.232 16.9108V7.08383C122.232 6.84179 122.033 6.64278 121.791 6.64278ZM44.1488 6.54596C42.7073 6.54596 41.411 7.0408 40.5235 7.92292C40.4052 8.04125 40.2223 8.0305 40.1147 7.90678C39.3563 7.03005 38.1945 6.54596 36.796 6.54596C35.5105 6.54596 34.4132 6.92785 33.6602 7.63247V7.08383C33.6602 6.84179 33.4612 6.64278 33.2192 6.64278H31.697C31.4549 6.64278 31.2559 6.84179 31.2559 7.08383V16.9108C31.2559 17.1529 31.4549 17.3519 31.697 17.3519H33.2945C33.5365 17.3519 33.7355 17.1529 33.7355 16.9108V11.8494C33.7355 9.93995 34.7145 8.84269 36.4195 8.84269C37.9202 8.84269 38.684 9.71942 38.684 11.4514V16.9108C38.684 17.1529 38.883 17.3519 39.125 17.3519H40.7225C40.9646 17.3519 41.1636 17.1529 41.1636 16.9108V11.8494C41.1636 9.93995 42.1425 8.84269 43.8476 8.84269C45.3536 8.84269 46.112 9.71942 46.112 11.4514V16.9108C46.112 17.1529 46.3111 17.3519 46.5531 17.3519H48.1506C48.3926 17.3519 48.5916 17.1529 48.5916 16.9108V11.2416C48.5916 8.26178 46.9726 6.55134 44.1488 6.55134V6.54596ZM139.224 16.9001L134.845 11.3438C134.759 11.2309 134.77 11.0749 134.867 10.9781L138.799 7.11073C138.976 6.93861 138.853 6.6374 138.605 6.6374H136.314C136.201 6.6374 136.099 6.68043 136.018 6.75573L131.586 10.8221C131.408 10.9834 131.123 10.8597 131.123 10.6177V7.07846C131.123 6.83641 130.924 6.6374 130.682 6.6374H129.085C128.843 6.6374 128.644 6.83641 128.644 7.07846V16.9054C128.644 17.1475 128.843 17.3465 129.085 17.3465H130.682C130.93 17.3465 131.123 17.1475 131.123 16.9001L131.107 14.6195C131.107 14.4958 131.156 14.3774 131.247 14.2914L132.624 13.0112C132.742 12.9036 132.925 12.9144 133.027 13.0435L136.357 17.1798C136.443 17.282 136.567 17.3465 136.701 17.3465H138.998C139.229 17.3465 139.358 17.0829 139.213 16.9001H139.224Z" fill="#0E0E10"/>
<path d="M22.4993 7.43882C22.4993 6.48678 21.983 5.61004 21.1546 5.14747L12.5325 0.333485C11.7364 -0.112952 10.7683 -0.112952 9.97221 0.333485L1.34469 5.14747C0.51636 5.61004 0 6.48678 0 7.43882V16.6257C0 17.5831 0.521739 18.4653 1.36082 18.9278L9.98835 23.6719C10.7736 24.1076 11.7311 24.1076 12.5164 23.6719L21.1439 18.9278C21.983 18.4653 22.5047 17.5831 22.5047 16.6257V7.43882H22.4993ZM6.47064 16.5558C6.47064 16.771 6.23935 16.9054 6.0511 16.8032L4.60959 16.0072C4.30838 15.8404 4.1255 15.5285 4.1255 15.1842V10.8436C4.1255 10.6284 4.35679 10.494 4.54505 10.5961L6.13178 11.4729C6.34155 11.5858 6.47064 11.8064 6.47064 12.0484V16.5558ZM18.3792 15.1627C18.3792 15.5016 18.1963 15.8189 17.8951 15.9857L16.4536 16.7817C16.2654 16.8839 16.0341 16.7494 16.0341 16.5343V10.9834C16.0341 10.7683 15.8028 10.6338 15.6145 10.736L12.952 12.2044C12.6508 12.3711 12.468 12.6831 12.468 13.0273V18.7019C12.468 18.8741 12.3765 19.03 12.2259 19.1107L11.6827 19.4119C11.403 19.5679 11.0587 19.5679 10.7736 19.4119L10.268 19.1322C10.1174 19.0515 10.026 18.8902 10.026 18.7234V12.9897C10.026 12.6508 9.84312 12.3335 9.54191 12.1667L4.26535 9.25146C4.17391 9.20305 4.12013 9.10623 4.12013 9.00404V8.77813C4.12013 8.43927 4.303 8.12192 4.60421 7.95518L5.35724 7.54102C5.63693 7.38503 5.98117 7.38503 6.26625 7.54102L10.8274 10.0637C11.1071 10.2196 11.4514 10.2196 11.7364 10.0637L13.7857 8.92873C13.9794 8.82116 13.9794 8.54146 13.7857 8.43389L9.20843 5.90587C9.01479 5.7983 9.01479 5.5186 9.20843 5.41103L10.7683 4.55043C11.048 4.39444 11.3922 4.39444 11.6773 4.55043L17.8897 7.98207C18.1909 8.14881 18.3738 8.46078 18.3738 8.80502V15.1573L18.3792 15.1627Z" fill="#0E0E10"/>
</g>
<defs>
<clipPath id="clip0_1_13">
<rect width="139.283" height="24" fill="white"/>
</clipPath>
</defs>
</svg>
